<svg xmlns="http://www.w3.org/2000/svg" xmlns:xlink="http://www.w3.org/1999/xlink" width="840" height="928.4"><rect width="840" height="928.4" rx="5" ry="5" class="a"/><svg y="0%" x="0%"><circle cx="20" cy="20" r="6" fill="#ff5f58"/><circle cx="40" cy="20" r="6" fill="#ffbd2e"/><circle cx="60" cy="20" r="6" fill="#18c132"/></svg><svg height="868.4" viewBox="0 0 80 86.84" width="800" x="15" xmlns="http://www.w3.org/2000/svg" xmlns:xlink="http://www.w3.org/1999/xlink" y="50"><style>.a{fill:#282d35}.f{fill:#b9c0cb;white-space:pre}</style><g font-family="Monaco,Consolas,Menlo,'Bitstream Vera Sans Mono','Powerline Symbols',monospace" font-size="1.67"><defs><symbol id="1"><text y="1.67" class="f">║</text><text x="60.12" y="1.67" class="f">║</text></symbol><symbol id="2"><text y="1.67" class="f">────────────────────────────────────────────────────────────</text></symbol><symbol id="a"><path fill="transparent" d="M0 0h80v41H0z"/></symbol><symbol id="b"><path fill="#6f7683" d="M0 0h1.102v2.171H0z"/></symbol></defs><path class="a" d="M0 0h80v86.84H0z"/><svg width="80"><svg><use xlink:href="#a"/><use xlink:href="#b" x="-.004" y="86.815"/><text y="3.841" class="f">╔═══════════════════════════════════════════════════════════╗</text><use xlink:href="#1" y="4.342"/><text y="8.183" class="f">║</text><text x="6.012" y="8.183" class="f">██████╗██╗</text><text x="22.044" y="8.183" class="f">█████╗</text><text x="29.058" y="8.183" class="f">██╗</text><text x="36.072" y="8.183" class="f">██╗██████╗</text><text x="60.12" y="8.183" class="f">║</text><text y="10.354" class="f">║</text><text x="5.01" y="10.354" class="f">██╔════╝██║</text><text x="21.042" y="10.354" class="f">██╔══██╗██║</text><text x="36.072" y="10.354" class="f">██║██╔══██╗</text><text x="60.12" y="10.354" class="f">║</text><text y="12.525" class="f">║</text><text x="5.01" y="12.525" class="f">██║</text><text x="13.026" y="12.525" class="f">██║</text><text x="21.042" y="12.525" class="f">███████║██║</text><text x="33.066" y="12.525" class="f">█╗</text><text x="36.072" y="12.525" class="f">██║██║</text><text x="44.088" y="12.525" class="f">██║</text><text x="60.12" y="12.525" class="f">║</text><text y="14.696" class="f">║</text><text x="5.01" y="14.696" class="f">██║</text><text x="13.026" y="14.696" class="f">██║</text><text x="21.042" y="14.696" class="f">██╔══██║██║███╗██║██║</text><text x="44.088" y="14.696" class="f">██║</text><text x="60.12" y="14.696" class="f">║</text><text y="16.867" class="f">║</text><text x="5.01" y="16.867" class="f">╚██████╗███████╗██║</text><text x="26.052" y="16.867" class="f">██║╚███╔███╔╝██████╔╝</text><text x="60.12" y="16.867" class="f">║</text><text y="19.038" class="f">║</text><text x="6.012" y="19.038" class="f">╚═════╝╚══════╝╚═╝</text><text x="26.052" y="19.038" class="f">╚═╝</text><text x="30.06" y="19.038" class="f">╚══╝╚══╝</text><text x="39.078" y="19.038" class="f">╚═════╝</text><text x="60.12" y="19.038" class="f">║</text><text y="21.209" class="f">║</text><text x="21.042" y="21.209" class="f">WATCH</text><text x="61.122" y="21.209" class="f">║</text><use xlink:href="#1" y="21.71"/><text y="25.551" class="f">║</text><text x="9.018" y="25.551" class="f">🦀</text><text x="12.024" y="25.551" class="f">The</text><text x="16.032" y="25.551" class="f">All-Seeing</text><text x="27.054" y="25.551" class="f">OSINT</text><text x="33.066" y="25.551" class="f">Agent</text><text x="39.078" y="25.551" class="f">🦀</text><text x="60.12" y="25.551" class="f">║</text><use xlink:href="#1" y="26.052"/><text y="29.893" class="f">╚═══════════════════════════════════════════════════════════╝</text><text y="34.235" class="f">🦀</text><text x="3.006" y="34.235" class="f">Initializing</text><text x="16.032" y="34.235" class="f">Clawdwatch...</text><text y="38.577" class="f">[2:59:22</text><text x="9.018" y="38.577" class="f">PM]</text><text x="13.026" y="38.577" class="f">Monitoring</text><text x="24.048" y="38.577" class="f">region:</text><text x="32.064" y="38.577" class="f">MIDDLE_EAST</text><text y="40.748" class="f">[2:59:22</text><text x="9.018" y="40.748" class="f">PM]</text><text x="13.026" y="40.748" class="f">Connecting</text><text x="24.048" y="40.748" class="f">to</text><text x="27.054" y="40.748" class="f">OpenSky</text><text x="35.07" y="40.748" class="f">Network...</text><text y="42.919" class="f">[2:59:22</text><text x="9.018" y="42.919" class="f">PM]</text><text x="13.026" y="42.919" class="f">Telegram</text><text x="22.044" y="42.919" class="f">alerts:</text><text x="30.06" y="42.919" class="f">❌</text><text x="32.064" y="42.919" class="f">Not</text><text x="36.072" y="42.919" class="f">configured</text><text x="47.094" y="42.919" class="f">(set</text><text x="52.104" y="42.919" class="f">TELEGRAM_BOT_TOKEN</text><text x="71.142" y="42.919" class="f">and</text><text x="75.15" y="42.919" class="f">TELEG</text><text y="45.09" class="f">RAM_CHAT_ID)</text><text y="47.261" class="f">[2:59:22</text><text x="9.018" y="47.261" class="f">PM]</text><text x="13.026" y="47.261" class="f">Fetching</text><text x="22.044" y="47.261" class="f">flights</text><text x="30.06" y="47.261" class="f">for</text><text x="34.068" y="47.261" class="f">MIDDLE_EAST...</text><text y="51.603" class="f">📡</text><text x="3.006" y="51.603" class="f">LIVE</text><text x="8.016" y="51.603" class="f">FLIGHT</text><text x="15.03" y="51.603" class="f">DATA</text><text x="20.04" y="51.603" class="f">—</text><text x="22.044" y="51.603" class="f">MIDDLE_EAST</text><use xlink:href="#2" y="52.104"/><text x="2.004" y="55.945" class="f">Total:</text><text x="9.018" y="55.945" class="f">214</text><text x="13.026" y="55.945" class="f">|</text><text x="15.03" y="55.945" class="f">Military:</text><text x="25.05" y="55.945" class="f">0</text><text x="27.054" y="55.945" class="f">|</text><text x="29.058" y="55.945" class="f">Emergency:</text><text x="40.08" y="55.945" class="f">0</text><use xlink:href="#2" y="56.446"/><text y="62.458" class="f">✈️</text><text x="4.008" y="62.458" class="f">ACTIVE</text><text x="11.022" y="62.458" class="f">FLIGHTS</text><text x="19.038" y="62.458" class="f">(by</text><text x="23.046" y="62.458" class="f">altitude):</text><text x="2.004" y="64.629" class="f">✈️</text><text x="6.012" y="64.629" class="f">MOZ309</text><text x="17.034" y="64.629" class="f">|</text><text x="20.04" y="64.629" class="f">13,716ft</text><text x="29.058" y="64.629" class="f">|</text><text x="32.064" y="64.629" class="f">225kts</text><text x="39.078" y="64.629" class="f">|</text><text x="41.082" y="64.629" class="f">Austria</text><text x="2.004" y="66.8" class="f">✈️</text><text x="6.012" y="66.8" class="f">ESW088</text><text x="17.034" y="66.8" class="f">|</text><text x="20.04" y="66.8" class="f">13,114ft</text><text x="29.058" y="66.8" class="f">|</text><text x="32.064" y="66.8" class="f">248kts</text><text x="39.078" y="66.8" class="f">|</text><text x="41.082" y="66.8" class="f">Azerbaijan</text><text x="2.004" y="68.971" class="f">✈️</text><text x="6.012" y="68.971" class="f">DLH723</text><text x="17.034" y="68.971" class="f">|</text><text x="20.04" y="68.971" class="f">12,192ft</text><text x="29.058" y="68.971" class="f">|</text><text x="32.064" y="68.971" class="f">254kts</text><text x="39.078" y="68.971" class="f">|</text><text x="41.082" y="68.971" class="f">Germany</text><text x="2.004" y="71.142" class="f">✈️</text><text x="6.012" y="71.142" class="f">DLH713</text><text x="17.034" y="71.142" class="f">|</text><text x="20.04" y="71.142" class="f">12,192ft</text><text x="29.058" y="71.142" class="f">|</text><text x="32.064" y="71.142" class="f">257kts</text><text x="39.078" y="71.142" class="f">|</text><text x="41.082" y="71.142" class="f">Germany</text><text x="2.004" y="73.313" class="f">✈️</text><text x="6.012" y="73.313" class="f">UZB273</text><text x="17.034" y="73.313" class="f">|</text><text x="20.04" y="73.313" class="f">12,192ft</text><text x="29.058" y="73.313" class="f">|</text><text x="32.064" y="73.313" class="f">246kts</text><text x="39.078" y="73.313" class="f">|</text><text x="41.082" y="73.313" class="f">Uzbekistan</text><text x="2.004" y="75.484" class="f">✈️</text><text x="6.012" y="75.484" class="f">AIC155</text><text x="17.034" y="75.484" class="f">|</text><text x="20.04" y="75.484" class="f">12,184ft</text><text x="29.058" y="75.484" class="f">|</text><text x="32.064" y="75.484" class="f">228kts</text><text x="39.078" y="75.484" class="f">|</text><text x="41.082" y="75.484" class="f">India</text><text x="2.004" y="77.655" class="f">✈️</text><text x="6.012" y="77.655" class="f">AAN251</text><text x="17.034" y="77.655" class="f">|</text><text x="20.04" y="77.655" class="f">12,040ft</text><text x="29.058" y="77.655" class="f">|</text><text x="32.064" y="77.655" class="f">231kts</text><text x="39.078" y="77.655" class="f">|</text><text x="41.082" y="77.655" class="f">Czech</text><text x="47.094" y="77.655" class="f">Republic</text><text x="2.004" y="79.826" class="f">✈️</text><text x="6.012" y="79.826" class="f">EWG77H</text><text x="17.034" y="79.826" class="f">|</text><text x="20.04" y="79.826" class="f">11,895ft</text><text x="29.058" y="79.826" class="f">|</text><text x="32.064" y="79.826" class="f">252kts</text><text x="39.078" y="79.826" class="f">|</text><text x="41.082" y="79.826" class="f">Germany</text><use xlink:href="#2" y="82.498"/><text y="86.339" class="f">[2:59:22</text><text x="9.018" y="86.339" class="f">PM]</text><text x="13.026" y="86.339" class="f">Next</text><text x="18.036" y="86.339" class="f">update</text><text x="25.05" y="86.339" class="f">in</text><text x="28.056" y="86.339" class="f">30</text><text x="31.062" y="86.339" class="f">seconds...</text></svg></svg></g></svg></svg>